<?xml version="1.0" encoding="UTF-8"?>
<svg width="80px" height="73px" viewBox="0 0 80 73" version="1.1" xmlns="http://www.w3.org/2000/svg" xmlns:xlink="http://www.w3.org/1999/xlink">
    <!-- Generator: Sketch 49.3 (51167) - http://www.bohemiancoding.com/sketch -->
    <title>Group</title>
    <desc>Created with Sketch.</desc>
    <defs></defs>
    <g id="Page-1" stroke="none" stroke-width="1" fill="none" fill-rule="evenodd">
        <g id="Group" transform="translate(1.000000, -3.000000)" stroke="#3232FA" stroke-width="2">
            <path d="M18.2369942,75 L18.2369942,63.3655568 C21.9364162,61.8881672 23.7861272,58.7487143 23.7861272,53.9471981 L31,49.3303556 C29.2736031,45.0213026 26.2524085,45.0213026 21.9364162,49.3303556 C19.4701349,50.6846294 18.2369942,49.699703 18.2369942,46.3755764 L18.2369942,30.6772255 C16.8805395,28.4618653 15.4624277,28.4618653 13.982659,30.6772255 C12.0096339,27.1075915 10.1599229,27.1075915 8.43352601,30.6772255 C6.58381503,29.0774443 5.16570328,29.3855959 4.17919075,31.6016803 C4.17919075,37.0187755 4.17919075,39.7273231 4.17919075,39.7273231 C2.87283237,37.1418913 1.47976879,37.5727966 0,41.020039 C1.10982659,54.3165455 -1,63.3655568 4.17919075,63.3655568 L4.17919075,75 L18.2369942,75 Z" id="Path-3"></path>
            <path d="" id="Path-4"></path>
            <path d="M4.5,39.1875 L4.5,50.8185468" id="Line-4"></path>
            <path d="M8.5,31.1875 L8.5,42.8185468" id="Line-4-Copy"></path>
            <path d="M14.5,30.1875 L14.5,41.8185468" id="Line-4-Copy-2"></path>
            <path d="M65.2369942,75 L65.2369942,63.3655568 C68.9364162,61.8881672 70.7861272,58.7487143 70.7861272,53.9471981 L78,49.3303556 C76.2736031,45.0213026 73.2524085,45.0213026 68.9364162,49.3303556 C66.4701349,50.6846294 65.2369942,49.699703 65.2369942,46.3755764 L65.2369942,30.6772255 C63.8805395,28.4618653 62.4624277,28.4618653 60.982659,30.6772255 C59.0096339,27.1075915 57.1599229,27.1075915 55.433526,30.6772255 C53.583815,29.0774443 52.1657033,29.3855959 51.1791908,31.6016803 C51.1791908,37.0187755 51.1791908,39.7273231 51.1791908,39.7273231 C49.8728324,37.1418913 48.4797688,37.5727966 47,41.020039 C48.1098266,54.3165455 46,63.3655568 51.1791908,63.3655568 L51.1791908,75 L65.2369942,75 Z" id="Path-3" transform="translate(62.500000, 51.500000) scale(-1, 1) translate(-62.500000, -51.500000) "></path>
            <path d="" id="Path-4" transform="translate(71.500000, 42.500000) scale(-1, 1) translate(-71.500000, -42.500000) "></path>
            <path d="M73.5,39.1875 L73.5,50.8185468" id="Line-4" transform="translate(73.500000, 45.000000) scale(-1, 1) translate(-73.500000, -45.000000) "></path>
            <path d="M69.5,31.1875 L69.5,42.8185468" id="Line-4-Copy" transform="translate(69.500000, 37.000000) scale(-1, 1) translate(-69.500000, -37.000000) "></path>
            <path d="M63.5,30.1875 L63.5,41.8185468" id="Line-4-Copy-2" transform="translate(63.500000, 36.000000) scale(-1, 1) translate(-63.500000, -36.000000) "></path>
            <polygon id="Rectangle-8" transform="translate(17.500000, 15.500000) rotate(-360.000000) translate(-17.500000, -15.500000) " points="20.1267574 10 23 21 12 18.1267574"></polygon>
            <polygon id="Rectangle-8-Copy-3" transform="translate(61.500000, 15.500000) scale(-1, 1) rotate(-360.000000) translate(-61.500000, -15.500000) " points="64.1267574 10 67 21 56 18.1267574"></polygon>
            <polygon id="Rectangle-8-Copy" transform="translate(31.500000, 8.500000) rotate(-330.000000) translate(-31.500000, -8.500000) " points="34.1267574 3 37 14 26 11.1267574"></polygon>
            <polygon id="Rectangle-8-Copy-2" transform="translate(48.500000, 8.500000) rotate(-300.000000) translate(-48.500000, -8.500000) " points="51.1267574 3 54 14 43 11.1267574"></polygon>
        </g>
    </g>
</svg>