<?xml version="1.0" encoding="UTF-8"?>
<svg width="26px" height="18px" viewBox="0 0 26 18" version="1.1" xmlns="http://www.w3.org/2000/svg" xmlns:xlink="http://www.w3.org/1999/xlink">
    <!-- Generator: Sketch 49.1 (51147) - http://www.bohemiancoding.com/sketch -->
    <title>Shape</title>
    <desc>Created with Sketch.</desc>
    <defs></defs>
    <g id="Page-1" stroke="none" stroke-width="1" fill="none" fill-rule="evenodd">
        <g id="Single-page-Copy-3" transform="translate(-900.000000, -8708.000000)" fill="#353535" fill-rule="nonzero" stroke="#353535" stroke-width="0.5">
            <path d="M924.997678,8709.66562 C924.997678,8709.63825 924.993034,8709.61089 924.989551,8709.58352 C924.987228,8709.5687 924.987228,8709.55387 924.984906,8709.54019 C924.980262,8709.51967 924.972135,8709.49914 924.965169,8709.47862 C924.958202,8709.45923 924.954719,8709.43871 924.945431,8709.42046 C924.939626,8709.40564 924.929176,8709.39195 924.92221,8709.37827 C924.909438,8709.35547 924.897828,8709.33152 924.882734,8709.311 C924.881573,8709.30871 924.880412,8709.30643 924.879251,8709.30529 C924.869963,8709.29161 924.858352,8709.28135 924.847903,8709.26995 C924.832809,8709.2517 924.817716,8709.23346 924.8003,8709.21635 C924.785206,8709.20153 924.767791,8709.19013 924.751536,8709.17758 C924.735281,8709.16504 924.719027,8709.15136 924.701611,8709.13995 C924.684195,8709.12855 924.665618,8709.12057 924.647042,8709.11145 C924.627304,8709.10119 924.608727,8709.09092 924.588989,8709.08294 C924.570413,8709.0761 924.550675,8709.07154 924.532098,8709.06584 C924.511199,8709.06014 924.4903,8709.05329 924.468241,8709.04873 C924.44502,8709.04417 924.421799,8709.04417 924.398578,8709.04189 C924.382323,8709.04075 924.366068,8709.03733 924.348653,8709.03733 L901.866141,8709.03733 C901.5991,8708.94383 901.292584,8709.02821 901.119588,8709.26538 C901.034831,8709.37941 900.998839,8709.5151 901.002322,8709.64738 C901.002322,8709.65536 901,8709.66334 901,8709.67132 L901,8724.36259 C901,8724.71493 901.290262,8725 901.649025,8725 L924.350975,8725 C924.709738,8725 925,8724.71493 925,8724.36259 L925,8709.67132 C924.998839,8709.66904 924.998839,8709.6679 924.997678,8709.66562 Z M922.308693,8710.30873 L912.999419,8716.7718 L903.737749,8710.30873 L922.308693,8710.30873 Z M923.70195,8723.72632 L902.296889,8723.72632 L902.296889,8710.86633 L912.62324,8718.07285 C912.632529,8718.07969 912.644139,8718.08197 912.653428,8718.08767 C912.691742,8718.11162 912.731218,8718.131 912.774176,8718.14582 C912.791592,8718.15267 912.807847,8718.15951 912.825262,8718.16407 C912.880993,8718.17889 912.937884,8718.18915 912.995936,8718.18915 C912.997097,8718.18915 912.998258,8718.18915 912.999419,8718.18915 C913.000581,8718.18915 913.001742,8718.18915 913.002903,8718.18915 C913.060955,8718.18915 913.117846,8718.17889 913.172415,8718.16407 C913.189831,8718.15951 913.206086,8718.15267 913.223502,8718.14582 C913.265299,8718.131 913.304775,8718.11162 913.343089,8718.08767 C913.352378,8718.08197 913.363988,8718.07969 913.373277,8718.07285 L923.700789,8710.90168 L923.700789,8723.72632 L923.70195,8723.72632 Z" id="Shape"></path>
        </g>
    </g>
</svg>