<?xml version="1.0" encoding="UTF-8"?>
<svg width="33px" height="38px" viewBox="0 0 33 38" version="1.1" xmlns="http://www.w3.org/2000/svg" xmlns:xlink="http://www.w3.org/1999/xlink">
    <!-- Generator: Sketch 49.1 (51147) - http://www.bohemiancoding.com/sketch -->
    <title>Group 17</title>
    <desc>Created with Sketch.</desc>
    <defs></defs>
    <g id="Page-1" stroke="none" stroke-width="1" fill="none" fill-rule="evenodd">
        <g id="Single-page" transform="translate(-718.000000, -6363.000000)" stroke="#353535" stroke-width="2">
            <g id="Group-17" transform="translate(719.000000, 6365.000000)">
                <path d="M9,28 C10,20.6666667 10,16.1666667 9,14.5 L13.5,12.5 L16,10 L14.5,8" id="Path-7"></path>
                <path d="M8.5,26.3120567 C15.8333333,16.713948 23,16.713948 30,26.3120567 C29.3333333,32.9314421 21.6666667,35.4137116 7,33.7588652 C4.33333333,35.4137116 2.16666667,35.4137116 0.5,33.7588652 C-0.166666667,28.1323877 -0.166666667,24.1607565 0.5,21.8439716 C2.83333333,15.5555556 3.66666667,10.9219858 3,7.94326241 L9.5,0 L16,4.96453901 L14,6.95035461 L9.5,8.93617021 L8.5,6.95035461 L11.5,3.97163121" id="Path-6"></path>
            </g>
        </g>
    </g>
</svg>