<?xml version="1.0" encoding="UTF-8"?>
<svg width="43px" height="31px" viewBox="0 0 43 31" version="1.1" xmlns="http://www.w3.org/2000/svg" xmlns:xlink="http://www.w3.org/1999/xlink">
    <!-- Generator: Sketch 49 (51002) - http://www.bohemiancoding.com/sketch -->
    <title>Group 5</title>
    <desc>Created with Sketch.</desc>
    <defs></defs>
    <g id="Page-1" stroke="none" stroke-width="1" fill="none" fill-rule="evenodd">
        <g id="Single-page" transform="translate(-75.000000, -5488.000000)" stroke="#353535" stroke-width="2">
            <g id="Group-5" transform="translate(76.000000, 5490.000000)">
                <g id="Group-16">
                    <g id="Group-15">
                        <polyline id="Path-9" points="24.1176471 13.3913043 27.2734499 15.2118311 32.5588235 18.2608696"></polyline>
                        <polyline id="Path-13" points="15.6764706 0.608695652 10.25 1.82608696 4.82352941 0 1.20588235 10.3478261"></polyline>
                        <path d="M0,9.55183946 L3.61764706,12.5953177 L7.83823529,17.4648829 C7.43627451,21.9286511 8.44117647,23.3489409 10.8529412,21.7257525 C11.6568627,25.3779264 13.0637255,26.1895206 15.0735294,24.1605351 C15.877451,27.4069119 17.2843137,28.0156076 19.2941176,25.9866221 C20.5,28.8272018 21.9068627,28.6243032 23.5147059,25.3779264 C25.122549,24.9721293 26.127451,24.3634337 26.5294118,23.5518395 C28.5392157,23.4977332 29.3431373,22.686139 28.9411765,21.1170569 C30.5490196,22.0368636 31.5539216,21.2523226 31.9558824,18.7634337 C33.5637255,18.3035303 34.3676471,17.4648829 34.3676471,16.2474916 L36.1764706,13.2040134 L40.3970588,10.7692308 L34.9705882,2.24749164 L30.1470588,4.68227425 C22.9117647,0.624303233 18.2892157,-0.795986622 16.2794118,0.421404682 L10.8529412,5.89966555 C12.8627451,9.55183946 15.0735294,9.34894091 17.4852941,5.2909699 L24.7205882,8.33444816" id="Path-8"></path>
                        <path d="M21.7058824,17.0434783 L30.1470588,21.3043478" id="Path-10"></path>
                        <path d="M8.44117647,17.1652174 C10.8529412,16.7594203 12.0588235,17.3681159 12.0588235,18.9913043 C15.6764706,18.1797101 17.2843137,18.9913043 16.8823529,21.426087 C18.8921569,20.6144928 20.0980392,21.0202899 20.5,22.6434783 C22.5098039,22.6434783 23.3137255,23.4550725 22.9117647,25.0782609" id="Path-12"></path>
                    </g>
                    <path d="M27.1323529,9.13043478 L34.9705882,16.4347826" id="Path-11"></path>
                </g>
            </g>
        </g>
    </g>
</svg>